<?xml version="1.0" encoding="UTF-8" standalone="no"?><svg xmlns="http://www.w3.org/2000/svg" xmlns:xlink="http://www.w3.org/1999/xlink" contentScriptType="application/ecmascript" contentStyleType="text/css" height="558px" preserveAspectRatio="none" style="width:618px;height:558px;background:#FFFFFF;" version="1.1" viewBox="0 0 618 558" width="618px" zoomAndPan="magnify"><defs><filter height="300%" id="f1plig8opg3ljj" width="300%" x="-1" y="-1"><feGaussianBlur result="blurOut" stdDeviation="2.0"/><feColorMatrix in="blurOut" result="blurOut2" type="matrix" values="0 0 0 0 0 0 0 0 0 0 0 0 0 0 0 0 0 0 .4 0"/><feOffset dx="4.0" dy="4.0" in="blurOut2" result="blurOut3"/><feBlend in="SourceGraphic" in2="blurOut3" mode="normal"/></filter></defs><g><g id="Solicitado"><rect fill="#FEFECE" filter="url(#f1plig8opg3ljj)" height="50" rx="12.5" ry="12.5" style="stroke:#A80036;stroke-width:1.5;" width="157" x="307" y="86"/><line style="stroke:#A80036;stroke-width:1.5;" x1="307" x2="464" y1="112.2969" y2="112.2969"/><text fill="#000000" font-family="sans-serif" font-size="14" lengthAdjust="spacing" textLength="137" x="317" y="103.9951">Proposta solicitada</text></g><g id="ConsentSolicitado"><rect fill="#FEFECE" filter="url(#f1plig8opg3ljj)" height="50" rx="12.5" ry="12.5" style="stroke:#A80036;stroke-width:1.5;" width="315" x="228" y="196"/><line style="stroke:#A80036;stroke-width:1.5;" x1="228" x2="543" y1="222.2969" y2="222.2969"/><text fill="#000000" font-family="sans-serif" font-size="14" lengthAdjust="spacing" textLength="295" x="238" y="213.9951">Consentimento solicitado no transmissor</text></g><g id="ConsentRejeitado"><rect fill="#FEFECE" filter="url(#f1plig8opg3ljj)" height="50" rx="12.5" ry="12.5" style="stroke:#A80036;stroke-width:1.5;" width="201" x="280" y="306"/><line style="stroke:#A80036;stroke-width:1.5;" x1="280" x2="481" y1="332.2969" y2="332.2969"/><text fill="#000000" font-family="sans-serif" font-size="14" lengthAdjust="spacing" textLength="181" x="290" y="323.9951">Consentimento rejeitado</text></g><g id="PropostaGerada"><rect fill="#FEFECE" filter="url(#f1plig8opg3ljj)" height="50" rx="12.5" ry="12.5" style="stroke:#A80036;stroke-width:1.5;" width="140" x="104.5" y="306"/><line style="stroke:#A80036;stroke-width:1.5;" x1="104.5" x2="244.5" y1="332.2969" y2="332.2969"/><text fill="#000000" font-family="sans-serif" font-size="14" lengthAdjust="spacing" textLength="120" x="114.5" y="323.9951">Proposta Gerada</text></g><g id="PropostaAceita"><rect fill="#FEFECE" filter="url(#f1plig8opg3ljj)" height="50" rx="12.5" ry="12.5" style="stroke:#A80036;stroke-width:1.5;" width="135" x="199" y="416"/><line style="stroke:#A80036;stroke-width:1.5;" x1="199" x2="334" y1="442.2969" y2="442.2969"/><text fill="#000000" font-family="sans-serif" font-size="14" lengthAdjust="spacing" textLength="115" x="209" y="433.9951">Proposta Aceita</text></g><g id="PropostaRejeitada"><rect fill="#FEFECE" filter="url(#f1plig8opg3ljj)" height="50" rx="12.5" ry="12.5" style="stroke:#A80036;stroke-width:1.5;" width="157" x="7" y="416"/><line style="stroke:#A80036;stroke-width:1.5;" x1="7" x2="164" y1="442.2969" y2="442.2969"/><text fill="#000000" font-family="sans-serif" font-size="14" lengthAdjust="spacing" textLength="137" x="17" y="433.9951">Proposta Rejeitada</text></g><g id="PropostaExpirada"><rect fill="#FEFECE" filter="url(#f1plig8opg3ljj)" height="50" rx="12.5" ry="12.5" style="stroke:#A80036;stroke-width:1.5;" width="151" x="453" y="416"/><line style="stroke:#A80036;stroke-width:1.5;" x1="453" x2="604" y1="442.2969" y2="442.2969"/><text fill="#000000" font-family="sans-serif" font-size="14" lengthAdjust="spacing" textLength="131" x="463" y="433.9951">Proposta Expirada</text></g><ellipse cx="385.5" cy="16" fill="#000000" filter="url(#f1plig8opg3ljj)" rx="10" ry="10" style="stroke:none;stroke-width:1.0;"/><ellipse cx="326.5" cy="536" filter="url(#f1plig8opg3ljj)" rx="10" ry="10" style="stroke:#000000;stroke-width:1.0;fill:none;"/><ellipse cx="327" cy="536.5" fill="#000000" rx="6" ry="6" style="stroke:none;stroke-width:1.0;"/><!--MD5=[05f3d052c638c1c1bb4aace18e8718bd]
link *start to Solicitado--><path d="M385.5,26.257 C385.5,38.856 385.5,61.981 385.5,80.743 " fill="none" id="*start-to-Solicitado" style="stroke:#A80036;stroke-width:1.0;"/><polygon fill="#A80036" points="385.5,85.907,389.5,76.907,385.5,80.907,381.5,76.907,385.5,85.907" style="stroke:#A80036;stroke-width:1.0;"/><!--MD5=[3b6e93e3244f1030a7da8f0c8fac646c]
link Solicitado to ConsentSolicitado--><path d="M385.5,136.237 C385.5,152.357 385.5,173.621 385.5,190.691 " fill="none" id="Solicitado-to-ConsentSolicitado" style="stroke:#A80036;stroke-width:1.0;"/><polygon fill="#A80036" points="385.5,195.844,389.5,186.844,385.5,190.844,381.5,186.844,385.5,195.844" style="stroke:#A80036;stroke-width:1.0;"/><!--MD5=[324b7edd3955b31b03de42688cf3a421]
link Solicitado to PropostaGerada--><path d="M306.799,133.408 C272.755,146.375 235.147,166.31 210.5,196 C185.731,225.837 177.877,271.136 175.46,300.653 " fill="none" id="Solicitado-to-PropostaGerada" style="stroke:#A80036;stroke-width:1.0;"/><polygon fill="#A80036" points="175.069,305.974,179.719,297.292,175.4361,300.9875,171.7406,296.7046,175.069,305.974" style="stroke:#A80036;stroke-width:1.0;"/><!--MD5=[6aee1a5d8883910053736b81e6974ff0]
link ConsentSolicitado to ConsentRejeitado--><path d="M384.378,246.237 C383.632,262.357 382.647,283.621 381.857,300.691 " fill="none" id="ConsentSolicitado-to-ConsentRejeitado" style="stroke:#A80036;stroke-width:1.0;"/><polygon fill="#A80036" points="381.618,305.844,386.0303,297.0388,381.8494,300.8494,378.0389,296.6685,381.618,305.844" style="stroke:#A80036;stroke-width:1.0;"/><!--MD5=[7dcdd45e102bdf840f5625093695de6b]
link ConsentSolicitado to PropostaGerada--><path d="M338.41,246.103 C305.049,263.178 260.31,286.078 226.002,303.639 " fill="none" id="ConsentSolicitado-to-PropostaGerada" style="stroke:#A80036;stroke-width:1.0;"/><polygon fill="#A80036" points="221.446,305.971,231.28,305.4295,225.8965,303.6922,227.6338,298.3087,221.446,305.971" style="stroke:#A80036;stroke-width:1.0;"/><!--MD5=[2440515e2c9551d0b7682ce7debcecb7]
link ConsentSolicitado to PropostaExpirada--><path d="M432.05,246.04 C455.4,260.406 482.126,280.783 498.5,306 C519.156,337.811 525.724,381.837 527.737,410.61 " fill="none" id="ConsentSolicitado-to-PropostaExpirada" style="stroke:#A80036;stroke-width:1.0;"/><polygon fill="#A80036" points="528.063,415.798,531.492,406.5653,527.7501,410.8078,523.5077,407.0659,528.063,415.798" style="stroke:#A80036;stroke-width:1.0;"/><!--MD5=[4be81ae71d06857495194d562f308cec]
link ConsentRejeitado to *end--><path d="M376.232,356.452 C371.273,383.502 362.368,428.259 351.5,466 C345.848,485.6282 337.471,507.7317 331.998,521.5132 " fill="none" id="ConsentRejeitado-to-*end" style="stroke:#A80036;stroke-width:1.0;"/><polygon fill="#A80036" points="330.124,526.194,337.1833,519.3263,331.9829,521.5524,329.7568,516.352,330.124,526.194" style="stroke:#A80036;stroke-width:1.0;"/><!--MD5=[79398b513d64cfe7c20c031ec8d6091b]
link PropostaGerada to PropostaAceita--><path d="M195.147,356.237 C209.233,372.773 227.932,394.725 242.654,412.007 " fill="none" id="PropostaGerada-to-PropostaAceita" style="stroke:#A80036;stroke-width:1.0;"/><polygon fill="#A80036" points="245.922,415.844,243.1315,406.3987,242.6799,412.0375,237.0411,411.586,245.922,415.844" style="stroke:#A80036;stroke-width:1.0;"/><!--MD5=[de787c1959ee91fa40b70f3a0b7bda53]
link PropostaGerada to PropostaRejeitada--><path d="M154.527,356.237 C141.014,372.634 123.114,394.356 108.928,411.57 " fill="none" id="PropostaGerada-to-PropostaRejeitada" style="stroke:#A80036;stroke-width:1.0;"/><polygon fill="#A80036" points="105.4067,415.844,114.2174,411.4427,108.5866,411.9855,108.0438,406.3548,105.4067,415.844" style="stroke:#A80036;stroke-width:1.0;"/><!--MD5=[0e3cf721e9d121d620bc2f653deafd0a]
link PropostaAceita to *end--><path d="M282.264,466.4347 C293.869,484.4213 309.172,508.142 318.401,522.4464 " fill="none" id="PropostaAceita-to-*end" style="stroke:#A80036;stroke-width:1.0;"/><polygon fill="#A80036" points="321.284,526.9146,319.7661,517.1834,318.5734,522.7131,313.0437,521.5204,321.284,526.9146" style="stroke:#A80036;stroke-width:1.0;"/><!--MD5=[deface01d888e6e2b17f9b3df0a1f776]
link PropostaRejeitada to *end--><path d="M147.877,466.0708 C203.514,487.5405 280.888,517.3988 312.352,529.5403 " fill="none" id="PropostaRejeitada-to-*end" style="stroke:#A80036;stroke-width:1.0;"/><polygon fill="#A80036" points="317.338,531.4645,310.3832,524.4909,312.6737,529.6633,307.5013,531.9538,317.338,531.4645" style="stroke:#A80036;stroke-width:1.0;"/><!--MD5=[f90ef2201084bba275e2e9c4a87584d0]
link Solicitado to PropostaExpirada--><path d="M464.316,129.414 C500.156,141.692 539.232,162.199 560.5,196 C603.152,263.785 566.184,363.126 543.328,411.466 " fill="none" id="Solicitado-to-PropostaExpirada" style="stroke:#A80036;stroke-width:1.0;"/><polygon fill="#A80036" points="541.164,415.983,548.6616,409.5966,543.3255,411.4743,541.4477,406.1382,541.164,415.983" style="stroke:#A80036;stroke-width:1.0;"/><!--MD5=[b36efef5d3b3151ede3370685fd5efef]
link PropostaGerada to PropostaExpirada--><path d="M244.862,353.466 C303.306,371.297 386.481,396.672 447.654,415.335 " fill="none" id="PropostaGerada-to-PropostaExpirada" style="stroke:#A80036;stroke-width:1.0;"/><polygon fill="#A80036" points="452.76,416.893,445.3182,410.4417,447.9774,415.4345,442.9846,418.0938,452.76,416.893" style="stroke:#A80036;stroke-width:1.0;"/><!--MD5=[132c484051a676325b036df9566a7b4f]
link PropostaExpirada to *end--><path d="M476.217,466.0708 C430.437,487.1478 367.097,516.3093 339.844,528.8564 " fill="none" id="PropostaExpirada-to-*end" style="stroke:#A80036;stroke-width:1.0;"/><polygon fill="#A80036" points="335.188,531.0002,345.036,530.8716,339.7301,528.91,341.6917,523.6041,335.188,531.0002" style="stroke:#A80036;stroke-width:1.0;"/><!--MD5=[0779572928b97e3cff76c63e6d7ca827]
@startuml
state "Proposta solicitada" as Solicitado
state "Consentimento solicitado no transmissor" as ConsentSolicitado
state "Consentimento rejeitado" as ConsentRejeitado
state "Proposta Gerada" as PropostaGerada
state "Proposta Aceita" as PropostaAceita
state "Proposta Rejeitada" as PropostaRejeitada
state "Proposta Expirada" as PropostaExpirada

[*] - -> Solicitado
Solicitado - -> ConsentSolicitado
Solicitado - -> PropostaGerada
ConsentSolicitado - -> ConsentRejeitado
ConsentSolicitado - -> PropostaGerada
ConsentSolicitado - -> PropostaExpirada
ConsentRejeitado - -> [*]
PropostaGerada - -> PropostaAceita
PropostaGerada - -> PropostaRejeitada
PropostaAceita - -> [*]
PropostaRejeitada - -> [*]
Solicitado - -> PropostaExpirada
PropostaGerada - -> PropostaExpirada
PropostaExpirada - -> [*]
@enduml

PlantUML version 1.2021.15beta6(Unknown compile time)
(GPL source distribution)
Java Runtime: Java(TM) SE Runtime Environment
JVM: Java HotSpot(TM) 64-Bit Server VM
Default Encoding: UTF-8
Language: en
Country: US
--></g></svg>